<?xml version="1.0" encoding="UTF-8"?><svg xmlns="http://www.w3.org/2000/svg" xmlns:xlink="http://www.w3.org/1999/xlink" contentScriptType="text/ecmascript" width="375pt" zoomAndPan="magnify" contentStyleType="text/css" viewBox="0 0 375 225" height="225pt" preserveAspectRatio="xMidYMid meet" version="1.2"><defs><g/><clipPath xml:id="clip1" id="clip1"><path d="M 12 16.714844 L 363 16.714844 L 363 171.964844 L 12 171.964844 Z M 12 16.714844 "/></clipPath></defs><g xml:id="surface1" id="surface1"><path style=" stroke:none;fill-rule:nonzero;fill:rgb(100%,100%,100%);fill-opacity:1;" d="M 332.101562 154.988281 L 14.894531 154.988281 C 14.894531 115.703125 46.675781 83.855469 85.886719 83.855469 C 91.339844 83.855469 96.648438 84.472656 101.746094 85.636719 C 104.300781 48.675781 135.027344 19.484375 172.566406 19.484375 C 210.253906 19.484375 241.078125 48.910156 243.410156 86.082031 C 249.070312 84.628906 255 83.855469 261.109375 83.855469 C 300.316406 83.855469 332.101562 115.703125 332.101562 154.988281 Z M 332.101562 154.988281 L 14.894531 154.988281 C 14.894531 115.703125 46.675781 83.855469 85.886719 83.855469 C 91.339844 83.855469 96.648438 84.472656 101.746094 85.636719 C 104.300781 48.675781 135.027344 19.484375 172.566406 19.484375 C 210.253906 19.484375 241.078125 48.910156 243.410156 86.082031 C 249.070312 84.628906 255 83.855469 261.109375 83.855469 C 300.316406 83.855469 332.101562 115.703125 332.101562 154.988281 Z M 332.101562 154.988281 "/><g clip-rule="nonzero" clip-path="url(#clip1)"><path style=" stroke:none;fill-rule:nonzero;fill:rgb(0%,0%,0%);fill-opacity:1;" d="M 307.957031 97.949219 C 297.496094 89.308594 284.621094 83.515625 270.515625 81.707031 C 262.699219 58.160156 243.375 39.976562 219.429688 33.597656 C 206.640625 23.039062 190.28125 16.714844 172.566406 16.714844 C 135.023438 16.714844 103.421875 45.273438 99.273438 82.300781 C 94.875 81.492188 90.382812 81.085938 85.886719 81.085938 C 45.214844 81.085938 12.128906 114.238281 12.128906 154.988281 L 12.128906 157.757812 L 41.035156 157.757812 C 40.429688 161.542969 40.097656 165.421875 40.097656 169.375 L 40.097656 172.144531 L 362.835938 172.144531 L 362.835938 169.375 C 362.835938 135.164062 339.507812 106.324219 307.957031 97.949219 Z M 85.886719 86.625 C 91.027344 86.625 96.15625 87.203125 101.132812 88.339844 L 104.28125 89.058594 L 104.507812 85.828125 C 106.964844 50.179688 136.863281 22.253906 172.566406 22.253906 C 208.492188 22.253906 238.398438 50.367188 240.652344 86.257812 L 240.859375 89.597656 L 244.097656 88.765625 C 249.625 87.34375 255.347656 86.625 261.109375 86.625 C 297.804688 86.625 327.828125 115.800781 329.28125 152.21875 L 17.710938 152.21875 C 19.167969 115.800781 49.191406 86.625 85.886719 86.625 Z M 85.886719 86.625 "/></g><g style="fill:rgb(0%,0%,0%);fill-opacity:1;"><g transform="translate(11.991654, 206.163853)"><path style="stroke:none;" d="M 2.8125 -10.953125 L 19.109375 -20 C 19.316406 -20.132812 19.472656 -20.203125 19.578125 -20.203125 C 19.804688 -20.203125 20.015625 -20.070312 20.203125 -19.8125 L 20.234375 -19.6875 C 20.316406 -19.5625 20.359375 -19.445312 20.359375 -19.34375 C 20.359375 -19.0625 20.1875 -18.828125 19.84375 -18.640625 L 6 -10.953125 L 19.84375 -3.28125 C 20.1875 -3.09375 20.359375 -2.867188 20.359375 -2.609375 C 20.359375 -2.484375 20.316406 -2.351562 20.234375 -2.21875 L 20.15625 -2.109375 C 20.03125 -1.847656 19.835938 -1.71875 19.578125 -1.71875 C 19.453125 -1.71875 19.285156 -1.78125 19.078125 -1.90625 Z M 2.8125 -10.953125 "/></g></g><g style="fill:rgb(0%,0%,0%);fill-opacity:1;"><g transform="translate(35.391673, 206.163853)"><path style="stroke:none;" d="M 18.796875 -24.6875 L 6.046875 2.453125 C 5.804688 2.921875 5.519531 3.15625 5.1875 3.15625 C 4.976562 3.15625 4.796875 3.078125 4.640625 2.921875 C 4.484375 2.765625 4.40625 2.59375 4.40625 2.40625 C 4.40625 2.226562 4.472656 2.023438 4.609375 1.796875 L 17.359375 -25.34375 C 17.585938 -25.8125 17.875 -26.046875 18.21875 -26.046875 C 18.425781 -26.046875 18.609375 -25.96875 18.765625 -25.8125 C 18.921875 -25.65625 19 -25.488281 19 -25.3125 C 19 -25.15625 18.929688 -24.945312 18.796875 -24.6875 Z M 18.796875 -24.6875 "/></g></g><g style="fill:rgb(0%,0%,0%);fill-opacity:1;"><g transform="translate(58.791692, 206.163853)"><path style="stroke:none;" d="M 17.359375 -20.15625 L 17.359375 -20.90625 C 17.359375 -21.601562 17.628906 -21.953125 18.171875 -21.953125 C 18.691406 -21.953125 18.953125 -21.601562 18.953125 -20.90625 L 18.953125 -16.890625 C 18.953125 -16.179688 18.691406 -15.828125 18.171875 -15.828125 C 17.648438 -15.828125 17.378906 -16.140625 17.359375 -16.765625 C 17.273438 -17.941406 16.703125 -18.914062 15.640625 -19.6875 C 14.578125 -20.46875 13.289062 -20.859375 11.78125 -20.859375 C 10.164062 -20.859375 8.832031 -20.429688 7.78125 -19.578125 C 6.726562 -18.722656 6.203125 -17.65625 6.203125 -16.375 C 6.203125 -15.101562 6.707031 -14.117188 7.71875 -13.421875 C 8.601562 -12.847656 10.070312 -12.390625 12.125 -12.046875 C 14.675781 -11.609375 16.429688 -11.085938 17.390625 -10.484375 C 19.003906 -9.503906 19.8125 -7.972656 19.8125 -5.890625 C 19.8125 -3.992188 19.054688 -2.429688 17.546875 -1.203125 C 16.035156 0.015625 14.113281 0.625 11.78125 0.625 C 9.019531 0.625 6.820312 -0.3125 5.1875 -2.1875 L 5.1875 -1.046875 C 5.1875 -0.347656 4.914062 0 4.375 0 C 3.851562 0 3.59375 -0.347656 3.59375 -1.046875 L 3.59375 -5.421875 C 3.59375 -6.117188 3.863281 -6.46875 4.40625 -6.46875 C 4.894531 -6.46875 5.15625 -6.15625 5.1875 -5.53125 C 5.238281 -4.257812 5.898438 -3.179688 7.171875 -2.296875 C 8.453125 -1.410156 9.972656 -0.96875 11.734375 -0.96875 C 13.554688 -0.96875 15.070312 -1.441406 16.28125 -2.390625 C 17.488281 -3.347656 18.09375 -4.539062 18.09375 -5.96875 C 18.09375 -7.445312 17.507812 -8.539062 16.34375 -9.25 C 15.582031 -9.738281 14.070312 -10.175781 11.8125 -10.5625 C 9.320312 -10.976562 7.554688 -11.578125 6.515625 -12.359375 C 5.160156 -13.296875 4.484375 -14.648438 4.484375 -16.421875 C 4.484375 -18.140625 5.164062 -19.578125 6.53125 -20.734375 C 7.894531 -21.890625 9.601562 -22.46875 11.65625 -22.46875 C 13.894531 -22.46875 15.796875 -21.695312 17.359375 -20.15625 Z M 17.359375 -20.15625 "/></g></g><g style="fill:rgb(0%,0%,0%);fill-opacity:1;"><g transform="translate(82.191711, 206.163853)"><path style="stroke:none;" d="M 7.25 -16.265625 L 15.828125 -16.265625 C 16.535156 -16.265625 16.890625 -16.003906 16.890625 -15.484375 C 16.890625 -14.929688 16.535156 -14.65625 15.828125 -14.65625 L 7.25 -14.65625 L 7.25 -4.25 C 7.25 -3.257812 7.640625 -2.460938 8.421875 -1.859375 C 9.203125 -1.265625 10.269531 -0.96875 11.625 -0.96875 C 12.71875 -0.96875 13.878906 -1.117188 15.109375 -1.421875 C 16.347656 -1.722656 17.34375 -2.09375 18.09375 -2.53125 C 18.351562 -2.6875 18.5625 -2.765625 18.71875 -2.765625 C 18.90625 -2.765625 19.078125 -2.6875 19.234375 -2.53125 C 19.390625 -2.375 19.46875 -2.191406 19.46875 -1.984375 C 19.46875 -1.410156 18.585938 -0.832031 16.828125 -0.25 C 15.078125 0.332031 13.367188 0.625 11.703125 0.625 C 9.859375 0.625 8.390625 0.191406 7.296875 -0.671875 C 6.203125 -1.546875 5.65625 -2.710938 5.65625 -4.171875 L 5.65625 -14.65625 L 2.765625 -14.65625 C 2.035156 -14.65625 1.671875 -14.929688 1.671875 -15.484375 C 1.671875 -16.003906 2.035156 -16.265625 2.765625 -16.265625 L 5.65625 -16.265625 L 5.65625 -20.90625 C 5.65625 -21.601562 5.925781 -21.953125 6.46875 -21.953125 C 6.988281 -21.953125 7.25 -21.601562 7.25 -20.90625 Z M 7.25 -16.265625 "/></g></g><g style="fill:rgb(0%,0%,0%);fill-opacity:1;"><g transform="translate(105.591731, 206.163853)"><path style="stroke:none;" d="M 12.484375 -16.265625 L 12.484375 -1.59375 L 18.71875 -1.59375 C 19.445312 -1.59375 19.8125 -1.332031 19.8125 -0.8125 C 19.8125 -0.269531 19.445312 0 18.71875 0 L 4.640625 0 C 3.941406 0 3.59375 -0.269531 3.59375 -0.8125 C 3.59375 -1.332031 3.941406 -1.59375 4.640625 -1.59375 L 10.875 -1.59375 L 10.875 -14.65625 L 6.28125 -14.65625 C 5.570312 -14.65625 5.21875 -14.929688 5.21875 -15.484375 C 5.21875 -16.003906 5.570312 -16.265625 6.28125 -16.265625 Z M 12.40625 -24.34375 L 12.40625 -20.28125 L 10.09375 -20.28125 L 10.09375 -24.34375 Z M 12.40625 -24.34375 "/></g></g><g style="fill:rgb(0%,0%,0%);fill-opacity:1;"><g transform="translate(128.99175, 206.163853)"><path style="stroke:none;" d="M 18.328125 -14.65625 L 18.328125 -15.171875 C 18.328125 -15.898438 18.601562 -16.265625 19.15625 -16.265625 C 19.664062 -16.265625 19.921875 -15.898438 19.921875 -15.171875 L 19.921875 -11.625 C 19.921875 -10.914062 19.664062 -10.5625 19.15625 -10.5625 C 18.6875 -10.5625 18.410156 -10.875 18.328125 -11.5 C 18.253906 -12.539062 17.613281 -13.414062 16.40625 -14.125 C 15.195312 -14.84375 13.769531 -15.203125 12.125 -15.203125 C 9.96875 -15.203125 8.21875 -14.53125 6.875 -13.1875 C 5.539062 -11.851562 4.875 -10.125 4.875 -8 C 4.875 -5.9375 5.550781 -4.25 6.90625 -2.9375 C 8.257812 -1.625 10 -0.96875 12.125 -0.96875 C 14.957031 -0.96875 17.390625 -1.90625 19.421875 -3.78125 C 19.679688 -4.039062 19.914062 -4.171875 20.125 -4.171875 C 20.332031 -4.171875 20.503906 -4.097656 20.640625 -3.953125 C 20.785156 -3.816406 20.859375 -3.644531 20.859375 -3.4375 C 20.859375 -2.914062 20.300781 -2.273438 19.1875 -1.515625 C 17.101562 -0.0859375 14.722656 0.625 12.046875 0.625 C 9.503906 0.625 7.40625 -0.179688 5.75 -1.796875 C 4.101562 -3.410156 3.28125 -5.460938 3.28125 -7.953125 C 3.28125 -10.523438 4.125 -12.644531 5.8125 -14.3125 C 7.5 -15.976562 9.644531 -16.8125 12.25 -16.8125 C 14.664062 -16.8125 16.691406 -16.09375 18.328125 -14.65625 Z M 18.328125 -14.65625 "/></g></g><g style="fill:rgb(0%,0%,0%);fill-opacity:1;"><g transform="translate(152.391769, 206.163853)"><path style="stroke:none;" d="M 7.21875 -7.015625 L 7.21875 0 L 3.515625 0 C 2.804688 0 2.453125 -0.269531 2.453125 -0.8125 C 2.453125 -1.332031 2.804688 -1.59375 3.515625 -1.59375 L 5.609375 -1.59375 L 5.609375 -21.953125 L 3.515625 -21.953125 C 2.804688 -21.953125 2.453125 -22.226562 2.453125 -22.78125 C 2.453125 -23.300781 2.804688 -23.5625 3.515625 -23.5625 L 7.21875 -23.5625 L 7.21875 -8.9375 L 13.96875 -14.65625 L 13.109375 -14.65625 C 12.398438 -14.65625 12.046875 -14.929688 12.046875 -15.484375 C 12.046875 -16.003906 12.398438 -16.265625 13.109375 -16.265625 L 18.171875 -16.265625 C 18.878906 -16.265625 19.234375 -16.003906 19.234375 -15.484375 C 19.234375 -14.929688 18.878906 -14.65625 18.171875 -14.65625 L 16.34375 -14.65625 L 10.21875 -9.5625 L 18.296875 -1.59375 L 20.046875 -1.59375 C 20.742188 -1.59375 21.09375 -1.332031 21.09375 -0.8125 C 21.09375 -0.269531 20.742188 0 20.046875 0 L 14.9375 0 C 14.238281 0 13.890625 -0.269531 13.890625 -0.8125 C 13.890625 -1.332031 14.238281 -1.59375 14.9375 -1.59375 L 16.03125 -1.59375 L 9.015625 -8.546875 Z M 7.21875 -7.015625 "/></g></g><g style="fill:rgb(0%,0%,0%);fill-opacity:1;"><g transform="translate(175.791788, 206.163853)"><path style="stroke:none;" d="M 20.28125 -7.765625 L 4.0625 -7.765625 C 4.34375 -5.710938 5.195312 -4.066406 6.625 -2.828125 C 8.0625 -1.585938 9.832031 -0.96875 11.9375 -0.96875 C 13.15625 -0.96875 14.398438 -1.160156 15.671875 -1.546875 C 16.953125 -1.941406 17.984375 -2.453125 18.765625 -3.078125 C 19.023438 -3.265625 19.234375 -3.359375 19.390625 -3.359375 C 19.585938 -3.359375 19.757812 -3.28125 19.90625 -3.125 C 20.050781 -2.96875 20.125 -2.785156 20.125 -2.578125 C 20.125 -1.898438 19.191406 -1.195312 17.328125 -0.46875 C 15.472656 0.257812 13.660156 0.625 11.890625 0.625 C 9.265625 0.625 7.035156 -0.257812 5.203125 -2.03125 C 3.367188 -3.800781 2.453125 -5.945312 2.453125 -8.46875 C 2.453125 -10.832031 3.3125 -12.8125 5.03125 -14.40625 C 6.75 -16.007812 8.851562 -16.8125 11.34375 -16.8125 C 13.21875 -16.8125 14.890625 -16.34375 16.359375 -15.40625 C 17.828125 -14.46875 18.910156 -13.191406 19.609375 -11.578125 C 20.054688 -10.535156 20.28125 -9.265625 20.28125 -7.765625 Z M 4.0625 -9.359375 L 18.640625 -9.359375 C 18.328125 -11.128906 17.507812 -12.546875 16.1875 -13.609375 C 14.863281 -14.671875 13.25 -15.203125 11.34375 -15.203125 C 9.445312 -15.203125 7.847656 -14.675781 6.546875 -13.625 C 5.253906 -12.570312 4.425781 -11.148438 4.0625 -9.359375 Z M 4.0625 -9.359375 "/></g></g><g style="fill:rgb(0%,0%,0%);fill-opacity:1;"><g transform="translate(199.191808, 206.163853)"><path style="stroke:none;" d="M 9.671875 -16.265625 L 9.671875 -12.28125 C 11.460938 -13.914062 12.914062 -15.050781 14.03125 -15.6875 C 15.15625 -16.332031 16.210938 -16.65625 17.203125 -16.65625 C 18.242188 -16.65625 19.242188 -16.25 20.203125 -15.4375 C 20.796875 -14.945312 21.09375 -14.546875 21.09375 -14.234375 C 21.09375 -14.003906 21.015625 -13.8125 20.859375 -13.65625 C 20.703125 -13.5 20.507812 -13.421875 20.28125 -13.421875 C 20.070312 -13.421875 19.863281 -13.523438 19.65625 -13.734375 C 18.75 -14.609375 17.890625 -15.046875 17.078125 -15.046875 C 16.191406 -15.046875 15.273438 -14.734375 14.328125 -14.109375 C 13.378906 -13.492188 11.828125 -12.195312 9.671875 -10.21875 L 9.671875 -1.59375 L 16.65625 -1.59375 C 17.351562 -1.59375 17.703125 -1.320312 17.703125 -0.78125 C 17.703125 -0.257812 17.351562 0 16.65625 0 L 4.328125 0 C 3.628906 0 3.28125 -0.269531 3.28125 -0.8125 C 3.28125 -1.332031 3.628906 -1.59375 4.328125 -1.59375 L 8.078125 -1.59375 L 8.078125 -14.65625 L 5.140625 -14.65625 C 4.441406 -14.65625 4.09375 -14.929688 4.09375 -15.484375 C 4.09375 -16.003906 4.441406 -16.265625 5.140625 -16.265625 Z M 9.671875 -16.265625 "/></g></g><g style="fill:rgb(0%,0%,0%);fill-opacity:1;"><g transform="translate(222.591816, 206.163853)"><path style="stroke:none;" d="M 18.640625 -19.765625 L 18.640625 -20.90625 C 18.640625 -21.601562 18.914062 -21.953125 19.46875 -21.953125 C 19.976562 -21.953125 20.234375 -21.601562 20.234375 -20.90625 L 20.234375 -16.53125 C 20.234375 -15.832031 19.960938 -15.484375 19.421875 -15.484375 C 18.953125 -15.484375 18.691406 -15.796875 18.640625 -16.421875 C 18.566406 -17.617188 17.859375 -18.65625 16.515625 -19.53125 C 15.179688 -20.414062 13.640625 -20.859375 11.890625 -20.859375 C 9.734375 -20.859375 7.890625 -20.03125 6.359375 -18.375 C 4.828125 -16.726562 4.0625 -14.75 4.0625 -12.4375 L 4.0625 -9.671875 C 4.0625 -7.328125 4.90625 -5.289062 6.59375 -3.5625 C 8.28125 -1.832031 10.269531 -0.96875 12.5625 -0.96875 C 13.914062 -0.96875 15.125 -1.238281 16.1875 -1.78125 C 17.25 -2.332031 18.300781 -3.234375 19.34375 -4.484375 C 19.570312 -4.742188 19.804688 -4.875 20.046875 -4.875 C 20.566406 -4.875 20.828125 -4.628906 20.828125 -4.140625 C 20.828125 -3.722656 20.332031 -3.054688 19.34375 -2.140625 C 17.363281 -0.296875 15.101562 0.625 12.5625 0.625 C 9.90625 0.625 7.554688 -0.394531 5.515625 -2.4375 C 3.472656 -4.476562 2.453125 -6.8125 2.453125 -9.4375 L 2.453125 -12.671875 C 2.453125 -13.867188 2.707031 -15.097656 3.21875 -16.359375 C 3.726562 -17.617188 4.394531 -18.691406 5.21875 -19.578125 C 7.019531 -21.503906 9.242188 -22.46875 11.890625 -22.46875 C 14.515625 -22.46875 16.765625 -21.566406 18.640625 -19.765625 Z M 18.640625 -19.765625 "/></g></g><g style="fill:rgb(0%,0%,0%);fill-opacity:1;"><g transform="translate(245.991824, 206.163853)"><path style="stroke:none;" d="M 12.484375 -23.5625 L 12.484375 -1.59375 L 18.71875 -1.59375 C 19.445312 -1.59375 19.8125 -1.332031 19.8125 -0.8125 C 19.8125 -0.269531 19.445312 0 18.71875 0 L 4.640625 0 C 3.941406 0 3.59375 -0.269531 3.59375 -0.8125 C 3.59375 -1.332031 3.941406 -1.59375 4.640625 -1.59375 L 10.875 -1.59375 L 10.875 -21.953125 L 6.3125 -21.953125 C 5.613281 -21.953125 5.265625 -22.226562 5.265625 -22.78125 C 5.265625 -23.300781 5.613281 -23.5625 6.3125 -23.5625 Z M 12.484375 -23.5625 "/></g></g><g style="fill:rgb(0%,0%,0%);fill-opacity:1;"><g transform="translate(269.391832, 206.163853)"><path style="stroke:none;" d="M 11.703125 -16.8125 C 14.191406 -16.8125 16.296875 -15.957031 18.015625 -14.25 C 19.734375 -12.550781 20.59375 -10.46875 20.59375 -8 C 20.59375 -5.601562 19.71875 -3.566406 17.96875 -1.890625 C 16.226562 -0.210938 14.140625 0.625 11.703125 0.625 C 9.234375 0.625 7.132812 -0.21875 5.40625 -1.90625 C 3.675781 -3.601562 2.8125 -5.671875 2.8125 -8.109375 C 2.8125 -10.503906 3.675781 -12.550781 5.40625 -14.25 C 7.132812 -15.957031 9.234375 -16.8125 11.703125 -16.8125 Z M 11.703125 -15.203125 C 9.671875 -15.203125 7.945312 -14.515625 6.53125 -13.140625 C 5.113281 -11.765625 4.40625 -10.085938 4.40625 -8.109375 C 4.40625 -6.128906 5.113281 -4.441406 6.53125 -3.046875 C 7.945312 -1.660156 9.671875 -0.96875 11.703125 -0.96875 C 13.703125 -0.96875 15.414062 -1.65625 16.84375 -3.03125 C 18.28125 -4.414062 19 -6.070312 19 -8 C 19 -10.050781 18.296875 -11.765625 16.890625 -13.140625 C 15.484375 -14.515625 13.753906 -15.203125 11.703125 -15.203125 Z M 11.703125 -15.203125 "/></g></g><g style="fill:rgb(0%,0%,0%);fill-opacity:1;"><g transform="translate(292.79184, 206.163853)"><path style="stroke:none;" d="M 17.125 0 L 17.125 -2.578125 C 14.9375 -0.441406 12.566406 0.625 10.015625 0.625 C 8.460938 0.625 7.210938 0.15625 6.265625 -0.78125 C 5.316406 -1.71875 4.84375 -2.953125 4.84375 -4.484375 L 4.84375 -14.65625 L 2.734375 -14.65625 C 2.023438 -14.65625 1.671875 -14.929688 1.671875 -15.484375 C 1.671875 -16.003906 2.023438 -16.265625 2.734375 -16.265625 L 6.4375 -16.265625 L 6.4375 -4.484375 C 6.4375 -3.492188 6.78125 -2.660156 7.46875 -1.984375 C 8.15625 -1.304688 8.992188 -0.96875 9.984375 -0.96875 C 12.585938 -0.96875 14.96875 -2.140625 17.125 -4.484375 L 17.125 -14.65625 L 14.234375 -14.65625 C 13.503906 -14.65625 13.140625 -14.929688 13.140625 -15.484375 C 13.140625 -16.003906 13.503906 -16.265625 14.234375 -16.265625 L 18.71875 -16.265625 L 18.71875 -1.59375 L 20.046875 -1.59375 C 20.742188 -1.59375 21.09375 -1.332031 21.09375 -0.8125 C 21.09375 -0.269531 20.742188 0 20.046875 0 Z M 17.125 0 "/></g></g><g style="fill:rgb(0%,0%,0%);fill-opacity:1;"><g transform="translate(316.191848, 206.163853)"><path style="stroke:none;" d="M 19.578125 -23.5625 L 19.578125 -1.59375 L 21.6875 -1.59375 C 22.382812 -1.59375 22.734375 -1.332031 22.734375 -0.8125 C 22.734375 -0.269531 22.382812 0 21.6875 0 L 17.984375 0 L 17.984375 -3.46875 C 16.128906 -0.738281 13.757812 0.625 10.875 0.625 C 8.5625 0.625 6.578125 -0.234375 4.921875 -1.953125 C 3.273438 -3.671875 2.453125 -5.722656 2.453125 -8.109375 C 2.453125 -10.503906 3.273438 -12.550781 4.921875 -14.25 C 6.578125 -15.957031 8.5625 -16.8125 10.875 -16.8125 C 13.738281 -16.8125 16.109375 -15.457031 17.984375 -12.75 L 17.984375 -21.953125 L 15.875 -21.953125 C 15.164062 -21.953125 14.8125 -22.226562 14.8125 -22.78125 C 14.8125 -23.300781 15.164062 -23.5625 15.875 -23.5625 Z M 11 -15.203125 C 9.070312 -15.203125 7.429688 -14.515625 6.078125 -13.140625 C 4.734375 -11.765625 4.0625 -10.085938 4.0625 -8.109375 C 4.0625 -6.109375 4.734375 -4.414062 6.078125 -3.03125 C 7.429688 -1.65625 9.082031 -0.96875 11.03125 -0.96875 C 12.957031 -0.96875 14.597656 -1.65625 15.953125 -3.03125 C 17.304688 -4.414062 17.984375 -6.082031 17.984375 -8.03125 C 17.984375 -10.0625 17.3125 -11.765625 15.96875 -13.140625 C 14.632812 -14.515625 12.976562 -15.203125 11 -15.203125 Z M 11 -15.203125 "/></g></g><g style="fill:rgb(0%,0%,0%);fill-opacity:1;"><g transform="translate(339.591856, 206.163853)"><path style="stroke:none;" d="M 20.59375 -10.953125 L 4.296875 -1.90625 C 4.085938 -1.78125 3.929688 -1.71875 3.828125 -1.71875 C 3.535156 -1.71875 3.328125 -1.847656 3.203125 -2.109375 L 3.15625 -2.21875 C 3.082031 -2.351562 3.046875 -2.484375 3.046875 -2.609375 C 3.046875 -2.867188 3.210938 -3.09375 3.546875 -3.28125 L 17.390625 -10.953125 L 3.546875 -18.640625 C 3.210938 -18.828125 3.046875 -19.0625 3.046875 -19.34375 C 3.046875 -19.445312 3.082031 -19.5625 3.15625 -19.6875 L 3.234375 -19.8125 C 3.367188 -20.070312 3.566406 -20.203125 3.828125 -20.203125 C 3.953125 -20.203125 4.117188 -20.132812 4.328125 -20 Z M 20.59375 -10.953125 "/></g></g></g></svg>